<svg id="Layer_1" data-name="Layer 1" xmlns="http://www.w3.org/2000/svg" viewBox="0 0 273.1 306.5"><defs><style>.cls-1,.cls-2,.cls-4,.cls-5,.cls-7,.cls-8{fill:none;stroke-width:12px;}.cls-1,.cls-2,.cls-3{stroke:#ff5eff;}.cls-1,.cls-4,.cls-7{stroke-linecap:round;}.cls-1,.cls-2,.cls-3,.cls-4,.cls-5,.cls-6,.cls-7,.cls-8{stroke-miterlimit:10;}.cls-3{fill:#ff5eff;}.cls-4,.cls-5,.cls-6{stroke:aqua;}.cls-6{fill:aqua;}.cls-7,.cls-8{stroke:#1d2036;}.cls-9{fill:#1d2036;}</style></defs><g id="Circuit"><line class="cls-1" x1="136.3" y1="300.5" x2="136.55" y2="18"/><path class="cls-2" d="M16,251.25V94c0-11.47,6.59-20.77,14.72-20.77H74.28C82.41,73.25,89,82.55,89,94V251.25" transform="translate(-4.45 -3.25)"/><line class="cls-2" x1="5.55" y1="132.5" x2="48.55" y2="132.5"/><path class="cls-2" d="M266,169.33v64.84c0,9.16-4.84,16.58-10.8,16.58H193" transform="translate(-4.45 -3.25)"/><path class="cls-2" d="M266,72.75H203.8c-6,0-10.8,7.42-10.8,16.58v46.84c0,9.16,4.84,16.58,10.8,16.58h33.4" transform="translate(-4.45 -3.25)"/><circle class="cls-3" cx="253.55" cy="70" r="11.05"/><circle class="cls-3" cx="194.55" cy="248" r="11.05"/><circle class="cls-3" cx="84.55" cy="248" r="11.05"/><circle class="cls-3" cx="11.55" cy="248" r="11.05"/><circle class="cls-3" cx="53.55" cy="132" r="11.05"/><circle class="cls-3" cx="232.55" cy="150" r="11.05"/><circle class="cls-3" cx="261.55" cy="176" r="11.05"/></g><g id="Circuit-2" data-name="Circuit"><line class="cls-4" x1="136.3" y1="288.5" x2="136.55" y2="6"/><path class="cls-5" d="M16,239.25V82c0-11.47,6.59-20.77,14.72-20.77H74.28C82.41,61.25,89,70.55,89,82V239.25" transform="translate(-4.45 -3.25)"/><line class="cls-5" x1="5.55" y1="120.5" x2="48.55" y2="120.5"/><path class="cls-5" d="M266,157.33v64.84c0,9.16-4.84,16.58-10.8,16.58H193" transform="translate(-4.45 -3.25)"/><path class="cls-5" d="M266,60.75H203.8c-6,0-10.8,7.42-10.8,16.58v46.84c0,9.16,4.84,16.58,10.8,16.58h33.4" transform="translate(-4.45 -3.25)"/><circle class="cls-6" cx="253.55" cy="58" r="11.05"/><circle class="cls-6" cx="194.55" cy="236" r="11.05"/><circle class="cls-6" cx="84.55" cy="236" r="11.05"/><circle class="cls-6" cx="11.55" cy="236" r="11.05"/><circle class="cls-6" cx="53.55" cy="120" r="11.05"/><circle class="cls-6" cx="232.55" cy="138" r="11.05"/><circle class="cls-6" cx="261.55" cy="164" r="11.05"/></g><g id="Circuit-3" data-name="Circuit"><line class="cls-7" x1="136.3" y1="294.5" x2="136.55" y2="12"/><path class="cls-8" d="M16,245.25V88c0-11.47,6.59-20.77,14.72-20.77H74.28C82.41,67.25,89,76.55,89,88V245.25" transform="translate(-4.45 -3.25)"/><line class="cls-8" x1="5.55" y1="126.5" x2="48.55" y2="126.5"/><path class="cls-8" d="M266,166.25v61.92c0,9.16-4.84,16.58-10.8,16.58H193" transform="translate(-4.45 -3.25)"/><path class="cls-8" d="M266,66.75H203.8c-6,0-10.8,7.42-10.8,16.58v46.84c0,9.16,4.84,16.58,10.8,16.58h33.4" transform="translate(-4.45 -3.25)"/><circle class="cls-9" cx="253.55" cy="64" r="11.05"/><circle class="cls-9" cx="194.55" cy="242" r="11.05"/><circle class="cls-9" cx="84.55" cy="242" r="11.05"/><circle class="cls-9" cx="11.55" cy="242" r="11.05"/><circle class="cls-9" cx="53.55" cy="126" r="11.05"/><circle class="cls-9" cx="232.55" cy="144" r="11.05"/><circle class="cls-9" cx="261.55" cy="170" r="11.05"/></g></svg>