<?xml version="1.0" encoding="utf-8"?>
<!-- Generator: Adobe Illustrator 26.0.3, SVG Export Plug-In . SVG Version: 6.00 Build 0)  -->
<svg version="1.1" id="Layer_1" xmlns="http://www.w3.org/2000/svg" xmlns:xlink="http://www.w3.org/1999/xlink" x="0px" y="0px"
	 viewBox="0 0 276.92 313" style="enable-background:new 0 0 276.92 313;" xml:space="preserve">
<style type="text/css">
	.st0{fill:none;stroke:#FF5EFF;stroke-width:12;stroke-linecap:round;stroke-miterlimit:10;}
	.st1{fill:none;stroke:#FF5EFF;stroke-width:12;stroke-miterlimit:10;}
	.st2{fill:#FF5EFF;stroke:#FF5EFF;stroke-miterlimit:10;}
	.st3{fill:none;stroke:#00FFFF;stroke-width:12;stroke-linecap:round;stroke-miterlimit:10;}
	.st4{fill:none;stroke:#00FFFF;stroke-width:12;stroke-miterlimit:10;}
	.st5{fill:#00FFFF;stroke:#00FFFF;stroke-miterlimit:10;}
	.st6{fill:none;stroke:#F9F4F1;stroke-width:12;stroke-linecap:round;stroke-miterlimit:10;}
	.st7{fill:none;stroke:#F9F4F1;stroke-width:12;stroke-miterlimit:10;}
	.st8{fill:#F9F4F1;}
</style>
<g id="Circuit_00000176738932186650508370000000455793128500377273_">
	<line class="st0" x1="138.35" y1="304.75" x2="138.6" y2="22.25"/>
	<path class="st1" d="M13.6,252.25V95.02c0-11.47,6.59-20.77,14.72-20.77h43.55c8.13,0,14.72,9.3,14.72,20.77v157.23"/>
	<line class="st1" x1="7.6" y1="136.75" x2="50.6" y2="136.75"/>
	<g>
		<path class="st1" d="M263.6,170.33v64.85c0,9.16-4.84,16.58-10.8,16.58h-62.2"/>
		<path class="st1" d="M263.6,73.75h-62.2c-5.97,0-10.8,7.42-10.8,16.58v46.85c0,9.16,4.84,16.58,10.8,16.58h33.39"/>
	</g>
	<circle class="st2" cx="255.6" cy="74.25" r="11.05"/>
	<circle class="st2" cx="196.6" cy="252.25" r="11.05"/>
	<circle class="st2" cx="86.6" cy="252.25" r="11.05"/>
	<circle class="st2" cx="13.6" cy="252.25" r="11.05"/>
	<circle class="st2" cx="55.6" cy="136.25" r="11.05"/>
	<circle class="st2" cx="234.6" cy="154.25" r="11.05"/>
	<circle class="st2" cx="263.6" cy="180.25" r="11.05"/>
</g>
<g id="Circuit_00000175313443028106422880000001053985171532926593_">
	<line class="st3" x1="138.35" y1="292.75" x2="138.6" y2="10.25"/>
	<path class="st4" d="M13.6,240.25V83.02c0-11.47,6.59-20.77,14.72-20.77h43.55c8.13,0,14.72,9.3,14.72,20.77v157.23"/>
	<line class="st4" x1="7.6" y1="124.75" x2="50.6" y2="124.75"/>
	<g>
		<path class="st4" d="M263.6,158.33v64.85c0,9.16-4.84,16.58-10.8,16.58h-62.2"/>
		<path class="st4" d="M263.6,61.75h-62.2c-5.97,0-10.8,7.42-10.8,16.58v46.85c0,9.16,4.84,16.58,10.8,16.58h33.39"/>
	</g>
	<circle class="st5" cx="255.6" cy="62.25" r="11.05"/>
	<circle class="st5" cx="196.6" cy="240.25" r="11.05"/>
	<circle class="st5" cx="86.6" cy="240.25" r="11.05"/>
	<circle class="st5" cx="13.6" cy="240.25" r="11.05"/>
	<circle class="st5" cx="55.6" cy="124.25" r="11.05"/>
	<circle class="st5" cx="234.6" cy="142.25" r="11.05"/>
	<circle class="st5" cx="263.6" cy="168.25" r="11.05"/>
</g>
<g id="Circuit_00000056386610399858481320000009128393755139527358_">
	<line class="st6" x1="138.35" y1="298.75" x2="138.6" y2="16.25"/>
	<path class="st7" d="M13.6,246.25V89.02c0-11.47,6.59-20.77,14.72-20.77h43.55c8.13,0,14.72,9.3,14.72,20.77v157.23"/>
	<line class="st7" x1="7.6" y1="130.75" x2="50.6" y2="130.75"/>
	<g>
		<path class="st7" d="M263.6,167.25v61.92c0,9.16-4.84,16.58-10.8,16.58h-62.2"/>
		<path class="st7" d="M263.6,67.75h-62.2c-5.97,0-10.8,7.42-10.8,16.58v46.85c0,9.16,4.84,16.58,10.8,16.58h33.39"/>
	</g>
	<circle class="st8" cx="255.6" cy="68.25" r="11.05"/>
	<circle class="st8" cx="196.6" cy="246.25" r="11.05"/>
	<circle class="st8" cx="86.6" cy="246.25" r="11.05"/>
	<circle class="st8" cx="13.6" cy="246.25" r="11.05"/>
	<circle class="st8" cx="55.6" cy="130.25" r="11.05"/>
	<circle class="st8" cx="234.6" cy="148.25" r="11.05"/>
	<circle class="st8" cx="263.6" cy="174.25" r="11.05"/>
</g>
</svg>
